<svg xmlns="http://www.w3.org/2000/svg" width="33" height="43" viewBox="0 0 33 43">
    <defs>
        <linearGradient id="a" x1="50%" x2="50%" y1="96.084%" y2="3.432%">
            <stop offset="0%" stop-color="#FD023C"/>
            <stop offset="100%" stop-color="#DE055B"/>
        </linearGradient>
    </defs>
    <g fill="none" fill-rule="evenodd">
        <path fill="#5D0019" d="M6.383 3.752L33 1v34.158a3 3 0 0 1-2.148 2.876l-16.32 4.833a3 3 0 0 1-2.117-.157l-9.68-4.505A3 3 0 0 1 1 35.485V9.72a6 6 0 0 1 5.383-5.968z" opacity=".442"/>
        <path fill="url(#a)" d="M5.383 2.752L32 0v34.158a3 3 0 0 1-2.148 2.876l-16.32 4.833a3 3 0 0 1-2.117-.157l-9.68-4.505A3 3 0 0 1 0 34.485V8.72a6 6 0 0 1 5.383-5.968z"/>
        <path fill="#FFF" d="M9.018 14.012c-.29.347-.7.616-1.23.808a5.15 5.15 0 0 1-1.762.287c-.677 0-1.27-.147-1.78-.443a2.955 2.955 0 0 1-1.182-1.286c-.278-.562-.42-1.223-.427-1.982v-.532c0-.78.131-1.456.394-2.027.264-.571.643-1.008 1.14-1.31.495-.303 1.076-.455 1.742-.455.927 0 1.653.221 2.175.664.523.442.833 1.085.93 1.93H7.449c-.071-.447-.23-.775-.475-.982-.245-.208-.583-.312-1.013-.312-.547 0-.965.206-1.251.618-.286.412-.432 1.024-.435 1.837v.5c0 .82.156 1.439.467 1.858.312.419.768.628 1.37.628.605 0 1.036-.129 1.294-.387v-1.348H5.94v-1.187h3.078v3.12zm3.018.988h-1.611V7.18h1.611V15zm5.908-1.611H15.12L14.582 15h-1.713l2.91-7.82h1.494L20.2 15h-1.713l-.543-1.611zm-2.39-1.306h1.955l-.983-2.927-.972 2.927zm.408-5.542l-.08-.72c.261-.015.45-.048.566-.1.117-.051.175-.135.175-.25 0-.246-.254-.37-.763-.37l.038-.725c.673 0 1.18.093 1.523.28.342.185.513.441.513.767a.67.67 0 0 1-.22.519c-.147.134-.343.219-.586.255v.344h-1.166zm7.074.639l2.009 5.672 1.998-5.672h2.116V15h-1.617v-2.138l.162-3.69L25.593 15h-1.107l-2.105-5.822.161 3.684V15h-1.611V7.18h2.105z"/>
        <path stroke="#FFF" stroke-dasharray="2" stroke-linecap="square" d="M5.5 19.5h22"/>
    </g>
</svg>
