<svg xmlns="http://www.w3.org/2000/svg" width="33" height="24" viewBox="0 0 33 24">
    <g fill="none" fill-rule="evenodd">
        <path fill="#E31E26" d="M21.425 13.713c0-.446-.112-.817-.334-1.115-.25-.34-.593-.51-1.03-.51-.437 0-.78.174-1.03.524-.214.306-.32.681-.32 1.127 0 .454.106.834.32 1.14.25.35.597.524 1.044.524.445 0 .789-.179 1.029-.537.214-.314.321-.699.321-1.153zm2.02 2.322c0 .316-.08.584-.241.802a.92.92 0 0 1-.75.343c-.463 0-.793-.255-.988-.763-.25.284-.491.487-.723.608-.232.12-.53.181-.896.181-.945 0-1.707-.359-2.287-1.077-.543-.665-.816-1.47-.816-2.416 0-.92.277-1.708.83-2.364.579-.71 1.328-1.064 2.246-1.064.607 0 1.164.254 1.672.763.205-.482.53-.724.976-.724.285 0 .52.094.702.283a.972.972 0 0 1 .275.704v4.724zM26.534 16.102c0 .307-.087.563-.261.769-.174.206-.413.309-.716.309-.312 0-.555-.103-.729-.309a1.15 1.15 0 0 1-.26-.769V8.52c0-.297.087-.55.26-.755.174-.206.413-.31.716-.31s.544.101.722.303c.179.201.268.455.268.762v7.582z"/>
        <path d="M27.684 7.456h1.965v9.724h-1.965z"/>
        <path fill="#E31E26" d="M29.65 16.102c0 .307-.087.563-.261.769-.174.206-.413.309-.716.309-.312 0-.555-.103-.729-.309a1.15 1.15 0 0 1-.26-.769V8.52c0-.297.087-.55.26-.755.174-.206.413-.31.716-.31s.544.101.722.303c.178.201.268.455.268.762v7.582z"/>
        <path fill="#850405" d="M5.614 8.131v-.004c.004-.04.042-.427.133-.981.07-.416.168-.926.306-1.456.103-.398.228-.806.377-1.193.112-.29.237-.567.376-.82.21-.377.45-.694.715-.91.133-.108.27-.191.415-.248a1.26 1.26 0 0 1 .46-.085 1.547 1.547 0 0 1 1.007.389c.162.14.31.316.442.52.232.359.416.803.557 1.28.212.715.33 1.499.392 2.169a16.366 16.366 0 0 1 .071 1.616v.041l.453.011c0-.001.002-.064.002-.176 0-.239-.007-.701-.052-1.272a14.693 14.693 0 0 0-.177-1.417c-.133-.752-.341-1.53-.681-2.179a3.25 3.25 0 0 0-.623-.852 2.042 2.042 0 0 0-.886-.508 1.968 1.968 0 0 0-.505-.07c-.178 0-.348.028-.51.078-.302.093-.569.267-.802.49a3.52 3.52 0 0 0-.543.684c-.28.45-.504.977-.684 1.514-.27.806-.443 1.638-.549 2.27-.106.633-.145 1.065-.146 1.07l.452.04z"/>
        <path fill="#E31E26" d="M8.096 6.668v-.004c.004-.037.036-.392.114-.902.059-.382.143-.851.261-1.339.088-.365.195-.74.322-1.096.096-.266.203-.52.322-.751.178-.347.384-.637.607-.832.112-.098.228-.172.347-.222a.969.969 0 0 1 .376-.076c.103 0 .214.016.334.052.195.058.369.163.53.314.14.13.268.296.383.489.201.336.362.754.485 1.201.185.671.288 1.407.342 2.035.056.629.064 1.151.064 1.4v.116l-.002.03V7.092l.454.011.001-.167c0-.224-.006-.658-.045-1.193-.03-.4-.076-.859-.154-1.328-.116-.705-.299-1.436-.596-2.046a3.09 3.09 0 0 0-.545-.808c-.218-.225-.48-.4-.786-.49A1.605 1.605 0 0 0 10.445 1c-.157 0-.308.025-.45.073a1.568 1.568 0 0 0-.376.185 2.332 2.332 0 0 0-.575.57c-.291.397-.518.893-.702 1.416-.273.783-.447 1.626-.553 2.276-.106.65-.144 1.107-.145 1.11l.452.038z"/>
        <path d="M4.845 5.627h10.776v17.261H4.845z"/>
        <path fill="#E31E26" d="M15.621 18.007L4.845 22.889V5.627l10.776 1.158z"/>
        <path fill="#990D10" d="M3 21.14l1.845 1.713V5.627L3 5.992z"/>
        <path fill="#FEFEFE" d="M15.167 16.014c0 .277-.067.535-.202.777-.136.244-.299.405-.488.481-.4.163-.647-.08-.731-.737l-.03-.234-.514-4.423-1.012 4.948c-.112.534-.213.902-.303 1.1a1.322 1.322 0 0 1-.724.69c-.513.208-.874-.038-1.071-.753l-1.446-5.226-.757 6.027c-.112.897-.507 1.486-1.209 1.771-.342.138-.642.13-.898-.032-.262-.163-.394-.443-.394-.838 0-.216.024-.485.07-.807l1.35-9.414c.15-1.06.685-1.588 1.566-1.59.703-.003 1.137.354 1.325 1.065l1.433 5.406 1.183-5.284c.181-.805.54-1.204 1.062-1.205.24-.001.454.104.644.313.187.205.298.467.335.789l.767 6.614c.03.25.044.437.044.562"/>
    </g>
</svg>
