<svg xmlns="http://www.w3.org/2000/svg" width="120" height="60" viewBox="0 0 120 60">
    <g fill="none" fill-rule="evenodd">
        <g fill-rule="nonzero" transform="translate(37)">
            <path fill="#A9A9A9" d="M43 54h-5v-6c0-7.591-4.147-14.44-10.714-18A20.428 20.428 0 0 0 38 12V6h5c1.654 0 3-1.346 3-3s-1.346-3-3-3H3C1.346 0 0 1.346 0 3s1.346 3 3 3h5v6c0 7.591 4.147 14.44 10.714 18A20.428 20.428 0 0 0 8 48v6H3c-1.654 0-3 1.346-3 3s1.346 3 3 3h40c1.654 0 3-1.346 3-3s-1.346-3-3-3zM3 4a1.001 1.001 0 0 1 0-2h40a1.001 1.001 0 0 1 0 2H3zm7 8V6h26v6a18.45 18.45 0 0 1-11.203 17h-3.595A18.45 18.45 0 0 1 10 12zm0 36a18.45 18.45 0 0 1 11.203-17h3.595A18.45 18.45 0 0 1 36 48v6a1 1 0 0 0-2 0h-2a1 1 0 0 0-2 0h-2a1 1 0 0 0-2 0h-2a1 1 0 0 0-2 0h-2a1 1 0 0 0-2 0h-2a1 1 0 0 0-2 0h-2a1 1 0 0 0-2 0v-6zm33 10H3a1.001 1.001 0 0 1 0-2h40a1.001 1.001 0 0 1 0 2z"/>
            <circle cx="13" cy="52" r="1" fill="#757575"/>
            <circle cx="17" cy="52" r="1" fill="#757575"/>
            <circle cx="21" cy="52" r="1" fill="#757575"/>
            <circle cx="25" cy="52" r="1" fill="#757575"/>
            <circle cx="29" cy="52" r="1" fill="#757575"/>
            <circle cx="33" cy="52" r="1" fill="#757575"/>
            <circle cx="15" cy="50" r="1" fill="#757575"/>
            <circle cx="19" cy="50" r="1" fill="#757575"/>
            <circle cx="23" cy="33" r="1" fill="#757575"/>
            <circle cx="23" cy="36" r="1" fill="#757575"/>
            <circle cx="23" cy="39" r="1" fill="#757575"/>
            <circle cx="23" cy="42" r="1" fill="#757575"/>
            <circle cx="23" cy="45" r="1" fill="#757575"/>
            <circle cx="23" cy="48" r="1" fill="#757575"/>
            <circle cx="27" cy="50" r="1" fill="#757575"/>
            <circle cx="31" cy="50" r="1" fill="#757575"/>
        </g>
        <path stroke="#CCC" stroke-linecap="square" stroke-width="2" d="M90.5 57.5h17M84.5 53.5h17M12.5 57.5h17M17.5 53.5h17"/>
    </g>
</svg>
